/* XPM */
static char *a06d39c8d43a478cb3db6b4b433f8c91lxXzad4nkHoln0wB[] = {
/* columns rows colors chars-per-pixel */
"64 64 40 1 ",
"  c #FF00FF",
". c #361F1F",
"X c #372020",
"o c #372121",
"O c #382020",
"+ c #382121",
"@ c #3C3A22",
"# c #502929",
"$ c #532F2D",
"% c #5D2C2E",
"& c #612E2F",
"* c #652F30",
"= c #793637",
"- c #7F3839",
"; c #3D4622",
": c #5D433A",
"> c #457425",
", c #8A3C3D",
"< c #923F40",
"1 c #933F40",
"2 c #A04345",
"3 c #A84648",
"4 c #AA4648",
"5 c #AF484A",
"6 c #B44A4C",
"7 c #B64B4D",
"8 c #B84B4D",
"9 c #BC4D4F",
"0 c #AE6057",
"q c #B9655C",
"w c #A76A6B",
"e c #CC6F65",
"r c #C87B6B",
"t c #4B9A27",
"y c #B4ABAB",
"u c #C3898A",
"i c #D8B78F",
"p c #E6C398",
"a c #FFD7A8",
"s c white",
/* pixels */
"           XXXXXXXXXXXXXXXXXXXXXXXXXXXXXXXXXXXXXXXXXXXXX        ",
"           X++++++++++++++++++++++++++++++++++++++++++++        ",
"           X++++++++++++++++++++++++++++++++++++++++++++        ",
"           X++++++++++++++++++++++++++++++++++++++++++++        ",
"        +++++++22222222222222299999999999999999999999999++++    ",
"        +++++++22222222222222299999999999999999999999999++++    ",
"        +++++++22222222222222299999999999999999999999999++++    ",
"        +++++++22222222222222299999999999999999999999999++++    ",
"    ++++ttt;+++22222222222222222229999999222222222229999++++    ",
"    ++++ttt;+++22222222222222222229999999222222222229999++++    ",
"    ++++ttt;+++22222222222222222229999999222222222229999++++    ",
"    ++++ttt;+++2222uuuw===uuuu2222999<,,,33333333333,,,,++++    ",
"    ++++ttt;+++2222sssy+++ssss2222999#+++99999999999++++++++    ",
"    ++++ttt;+++2222sssy+++ssss2222999#+++99999999999++++++++    ",
"    ++++ttt;+++2222sssy+++ssss2222999#+++99999999999++++++++    ",
"    +++++++++++2222sssy+++ssss22229999999999999999999999++++    ",
"    +++++++++++2222sssy+++ssss22229999999999999999999999++++    ",
"    +++++++++++2222sssy+++ssss22229999999999999999999999++++    ",
"    +++++++++++2222sssy+++ssss22229999999999999999999999++++    ",
"        +++>ttt++++sssy+++ssss22229999999999999999999999++++    ",
"        +++>ttt++++sssy+++ssss22229999999999999999999999++++    ",
"        +++>ttt++++sssy+++ssss22229999999999999999999999++++    ",
"        +++>ttt++++sssy+++ssss22229999999999999999999999++++    ",
"        +++>ttt++++2222222222222229999999999999999999999++++    ",
"        +++>ttt++++2222222222222229999999999999999999999++++    ",
"        +++>ttt++++2222222222222229999999999999999999999++++    ",
"        +++@;;;++++2222222222222223338999&&&&&&&&&&&&&&&++++    ",
"        +++++++++++2222222222222222226999+++++++++++++++++++    ",
"        +++++++++++2222222222222222226999+++++++++++++++++++    ",
"        +++++++++++2222222222222222226999+++++++++++++++++++    ",
"        +++++++2222222399999999999999#+++                       ",
"        +++++++2222222399999999999999#+++                       ",
"        +++++++2222222399999999999999#+++                       ",
"        +++++++2222222399999999999999#+++                       ",
"           X+++2222222399999999999999#+++                       ",
"           X+++2222222399999999999999#+++                       ",
"           X+++2222222399999999999999#+++                       ",
"           X+++2222000qeeeeeeeeeeeeee$+++                       ",
"           X+++2222iiipaaaaaaaaaaaaaa:+++                       ",
"           X+++2222iiipaaaaaaaaaaaaaa:+++                       ",
"           X+++2222iiipaaaaaaaaaaaaaa:+++                       ",
"    +++++++<9992222iiipaaaaaaaaaaaaaa:+++                       ",
"    +++++++<9992222iiipaaaaaaaaaaaaaa:+++                       ",
"    +++++++<9992222iiipaaaaaaaaaaaaaa:+++                       ",
"    +++++++<9992222iiipaaaaaaaaaaaaaa:+++                       ",
"    ++++99932222222iiipaaaaaaaaaaaaaa:+++                       ",
"    ++++99932222222iiipaaaaaaaaaaaaaa:+++                       ",
"    ++++99932222222iiipaaaaaaaaaaaaaa:+++                       ",
"    ++++99932222222iiipaaaaaaaaaaaaaa:+++                       ",
"        +++-22222222223999iiiiiiii999#+++                       ",
"        +++-22222222223999iiiiiiii999#+++                       ",
"        +++-22222222223999iiiiiiii999#+++                       ",
"           %***22225556999rrrrrrrr999#+++                       ",
"           X+++2222999999999999999999#+++                       ",
"           X+++2222999999999999999999#+++                       ",
"           X+++2222999999999999999999#+++                       ",
"           X+++2222999,+++++++2222999#+++                       ",
"           X+++2222999,+++++++2222999#+++                       ",
"           X+++2222999,+++++++2222999#+++                       ",
"           X+++2222999,+++++++2222999#+++                       ",
"           X+++++++++++   +++++++++++                           ",
"           X+++++++++++   +++++++++++                           ",
"           X+++++++++++   +++++++++++                           ",
"           .++++++++++X   +++++++++++                           "
};
