/* XPM */
static char *d2ffc7884519430596f59b26fdfaa2a9[] = {
/* columns rows colors chars-per-pixel */
"17 24 8 1 ",
"  c None",
". c #382121",
"X c #A04345",
"o c #BC4D4F",
"O c #4B9A27",
"+ c #D8B78F",
"@ c #FFD7A8",
"# c white",
/* pixels */
"                 ",
"                 ",
"                 ",
"      .........  ",
"   ...XXooooooo. ",
"  ..XXXXXooXXXo. ",
" .O.X#.XXo.ooo.. ",
" .O.X#.#Xoooooo. ",
" ...X#.#Xoooooo. ",
"  .O.XXXooooooo. ",
"  .O.XXXXoooo... ",
"  ...XXXXXo..    ",
"  ..XXoooo.      ",
"   .X+@@@@.      ",
"   .X+@@@@.      ",
" ..oX+@@@@..     ",
" .oXXXo++oo.     ",
" ...XooooXX.     ",
"   .Xo.....      ",
"   .X.           ",
"   ..            ",
"                 ",
"                 ",
"                 "
};
