/* XPM */
static char *_6433e08991d48aebf31f80cde52b423[] = {
/* columns rows colors chars-per-pixel */
"18 24 8 1 ",
"  c None",
". c #382121",
"X c #A04345",
"o c #BC4D4F",
"O c #4B9A27",
"+ c #D8B78F",
"@ c #FFD7A8",
"# c white",
/* pixels */
"                  ",
"                  ",
"                  ",
"                  ",
"                  ",
"                  ",
"   .............. ",
"  ..O.XXXXooooooo.",
"  .O..XXXXXooXXXo.",
"   .O.X#.#Xo.ooo..",
"  .O..X#.#Xoooooo.",
"  ....X#.#Xoooooo.",
"    ..XXXXXoooooo.",
"....X..XXXX.......",
".ooXXX+@@@@.      ",
" .XXoo.++..       ",
"  .XXX.oo.        ",
"   ....o.         ",
"     .X.          ",
"     ..           ",
"                  ",
"                  ",
"                  ",
"                  "
};
