/* XPM */
static char *a62239e8a0624e84b45aed5861f2f585[] = {
/* columns rows colors chars-per-pixel */
"18 24 8 1 ",
"  c None",
". c #382121",
"X c #A04345",
"o c #BC4D4F",
"O c #4B9A27",
"+ c #D8B78F",
"@ c #FFD7A8",
"# c white",
/* pixels */
"                  ",
"                  ",
"                  ",
"                  ",
"                  ",
"                  ",
"                  ",
"   .............. ",
"  ..O.XXXXooooooo.",
"  .O..XXXXXooXXXo.",
"   .O.X#.#Xo.ooo..",
"  .O..X#.#Xoooooo.",
"  ....X#.#Xoooooo.",
"    ..XXXXXoooooo.",
"....X..XXXX.......",
".ooXXX+@@@@.      ",
" .XXX.+++..       ",
"  .Xoo.oo.        ",
"  .Xoo.Xo.        ",
"   .Xo...         ",
"   ....           ",
"                  ",
"                  ",
"                  "
};
