/* XPM */
static char *_5c65b4a3bb14f8af8ca65bcb4b5048eecvf2rqRUM504Hns[] = {
/* columns rows colors chars-per-pixel */
"16 16 2 1 ",
"  c None",
". c black",
/* pixels */
"                ",
"    ........    ",
"    ........    ",
"   ..      ..   ",
"  ...      ...  ",
"  ...   ......  ",
"  ...  .......  ",
"  ............  ",
"  ............  ",
"  .......  ...  ",
"  ......   ...  ",
"  ...      ...  ",
"  ...      ...  ",
"   ..      ..   ",
"    ........    ",
"    ........    "
};
