/* XPM */
static char *_32537af2c814611b890a12b4c08e1a5Me7GtqgFkeR5D6xN[] = {
/* columns rows colors chars-per-pixel */
"32 32 2 1 ",
"  c None",
". c white",
/* pixels */
"                                ",
"                                ",
"        ................        ",
"        ................        ",
"        ................        ",
"        ................        ",
"      ....            ....      ",
"      ....            ....      ",
"    ......            ......    ",
"    ......            ......    ",
"    ......      ............    ",
"    ......      ............    ",
"    ......    ..............    ",
"    ......    ..............    ",
"    ........................    ",
"    ........................    ",
"    ........................    ",
"    ........................    ",
"    ..............    ......    ",
"    ..............    ......    ",
"    ............      ......    ",
"    ............      ......    ",
"    ......            ......    ",
"    ......            ......    ",
"    ......            ......    ",
"    ......            ......    ",
"      ....            ....      ",
"      ....            ....      ",
"        ................        ",
"        ................        ",
"        ................        ",
"        ................        "
};
