/* XPM */
static char *ef78d1e392714b1e94cbe0763fe1d61aLd01E3U5eFlN14Ld[] = {
/* columns rows colors chars-per-pixel */
"16 16 2 1 ",
"  c None",
". c black",
/* pixels */
"                ",
"        ....    ",
"        ....    ",
"      ......    ",
"      ......    ",
"    ........    ",
"    ........    ",
"        ....    ",
"        ....    ",
"        ....    ",
"        ....    ",
"        ....    ",
"        ....    ",
"        ....    ",
"        ....    ",
"        ....    "
};
