/* XPM */
static char *b8776ae492244336df127658b1848685SzWnDYsufCX6sgyF[] = {
/* columns rows colors chars-per-pixel */
"32 32 2 1 ",
"  c None",
". c white",
/* pixels */
"                                ",
"                                ",
"                ........        ",
"                ........        ",
"                ........        ",
"                ........        ",
"            ............        ",
"            ............        ",
"            ............        ",
"            ............        ",
"        ................        ",
"        ................        ",
"        ................        ",
"        ................        ",
"                ........        ",
"                ........        ",
"                ........        ",
"                ........        ",
"                ........        ",
"                ........        ",
"                ........        ",
"                ........        ",
"                ........        ",
"                ........        ",
"                ........        ",
"                ........        ",
"                ........        ",
"                ........        ",
"                ........        ",
"                ........        ",
"                ........        ",
"                ........        "
};
