/* XPM */
static char *_601a5a87c764db0bcaf907b427e8cb20RF32R2Wmml1DdbN[] = {
/* columns rows colors chars-per-pixel */
"32 32 2 1 ",
"  c None",
". c white",
/* pixels */
"                                ",
"                                ",
"        ................        ",
"        ................        ",
"        ................        ",
"        ................        ",
"    ......            ......    ",
"    ......            ......    ",
"    ......            ......    ",
"    ......            ......    ",
"                      ......    ",
"                      ......    ",
"                      ......    ",
"                      ......    ",
"                ........        ",
"                ........        ",
"                ........        ",
"                ........        ",
"                ....            ",
"                ....            ",
"            ........            ",
"            ........            ",
"            ....                ",
"            ....                ",
"        ........                ",
"        ........                ",
"        ........        ....    ",
"        ........        ....    ",
"    ........................    ",
"    ........................    ",
"    ........................    ",
"    ........................    "
};
