/* XPM */
static char *_b2926462c014075fbc03fd50bf031b5Ty6WtYuSjId5pzbf[] = {
/* columns rows colors chars-per-pixel */
"16 16 2 1 ",
"  c None",
". c black",
/* pixels */
"                ",
"    ........    ",
"    ........    ",
"  ...      ...  ",
"  ...      ...  ",
"           ...  ",
"           ...  ",
"        ....    ",
"        ....    ",
"        ..      ",
"      ....      ",
"      ..        ",
"    ....        ",
"    ....    ..  ",
"  ............  ",
"  ............  "
};
