/* XPM */
static char *_12864cdb1e64262800bb8299d06a060TBsLnvF01OvVimrV[] = {
/* columns rows colors chars-per-pixel */
"16 16 2 1 ",
"  c None",
". c black",
/* pixels */
"                ",
"    ........    ",
"   .........    ",
"  ....   ....   ",
"  ...     ....  ",
"          ....  ",
"         ....   ",
"      ......    ",
"      ......    ",
"         ....   ",
"          ....  ",
"          ....  ",
"  ...     ....  ",
"  ....   ....   ",
"   .........    ",
"    ........    "
};
