/* XPM */
static char *df462f7f3d084ec989282c58e56a6ca5IgptNoEKgr3cPeTr[] = {
/* columns rows colors chars-per-pixel */
"32 32 2 1 ",
"  c None",
". c white",
/* pixels */
"                                ",
"                                ",
"        ................        ",
"        ................        ",
"      ..................        ",
"      ..................        ",
"    ........      ........      ",
"    ........      ........      ",
"    ......          ........    ",
"    ......          ........    ",
"                    ........    ",
"                    ........    ",
"                  ........      ",
"                  ........      ",
"            ............        ",
"            ............        ",
"            ............        ",
"            ............        ",
"                  ........      ",
"                  ........      ",
"                    ........    ",
"                    ........    ",
"                    ........    ",
"                    ........    ",
"    ......          ........    ",
"    ......          ........    ",
"    ........      ........      ",
"    ........      ........      ",
"      ..................        ",
"      ..................        ",
"        ................        ",
"        ................        "
};
