/* XPM */
static char *ead475efa7044dbb9aa400057eb73170P1KSTYPyYnp1Wp7z[] = {
/* columns rows colors chars-per-pixel */
"32 32 2 1 ",
"  c None",
". c white",
/* pixels */
"                                ",
"                                ",
"                  ..........    ",
"                  ..........    ",
"                ............    ",
"                ............    ",
"              ..............    ",
"              ..............    ",
"            ................    ",
"            ................    ",
"          ........    ......    ",
"          ........    ......    ",
"        ........      ......    ",
"        ........      ......    ",
"      ........        ......    ",
"      ........        ......    ",
"    ........          ......    ",
"    ........          ......    ",
"    ........................    ",
"    ........................    ",
"    ........................    ",
"    ........................    ",
"                      ......    ",
"                      ......    ",
"                      ......    ",
"                      ......    ",
"                      ......    ",
"                      ......    ",
"                      ......    ",
"                      ......    ",
"                      ......    ",
"                      ......    "
};
