/* XPM */
static char *b0b688c7895a4020b0d8a3bf4a690de5Y51lT4Ucv18alDKH[] = {
/* columns rows colors chars-per-pixel */
"16 16 2 1 ",
"  c None",
". c black",
/* pixels */
"                ",
"         .....  ",
"        ......  ",
"       .......  ",
"      ........  ",
"     ....  ...  ",
"    ....   ...  ",
"   ....    ...  ",
"  ....     ...  ",
"  ............  ",
"  ............  ",
"           ...  ",
"           ...  ",
"           ...  ",
"           ...  ",
"           ...  "
};
