/* XPM */
static char *_fa924dc6d6c4a06e4b7517960808f50xX2My96NinkCAuLy[] = {
/* columns rows colors chars-per-pixel */
"16 16 2 1 ",
"  c None",
". c black",
/* pixels */
"                ",
"  ............  ",
"  ............  ",
"  ....          ",
"  ....          ",
"  ..........    ",
"  ..........    ",
"          ....  ",
"           ...  ",
"           ...  ",
"           ...  ",
"           ...  ",
"  ...      ...  ",
"  ....    ....  ",
"    ........    ",
"    ........    "
};
