/* XPM */
static char *a10f46d4260e49f2e163ee643408d620FfaVA7rJpLUlniXv[] = {
/* columns rows colors chars-per-pixel */
"32 32 2 1 ",
"  c None",
". c white",
/* pixels */
"                                ",
"                                ",
"    ........................    ",
"    ........................    ",
"    ........................    ",
"    ........................    ",
"    ........                    ",
"    ........                    ",
"    ........                    ",
"    ........                    ",
"    ....................        ",
"    ....................        ",
"    ....................        ",
"    ....................        ",
"                    ........    ",
"                    ........    ",
"                      ......    ",
"                      ......    ",
"                      ......    ",
"                      ......    ",
"                      ......    ",
"                      ......    ",
"                      ......    ",
"                      ......    ",
"    ......            ......    ",
"    ......            ......    ",
"    ........        ........    ",
"    ........        ........    ",
"        ................        ",
"        ................        ",
"        ................        ",
"        ................        "
};
