/* XPM */
static char *a97b6497782341adbc36fdbbf4d9e0f9z3rZb7INYf28rjH1[] = {
/* columns rows colors chars-per-pixel */
"32 32 2 1 ",
"  c None",
". c white",
/* pixels */
"                                ",
"                                ",
"        ................        ",
"        ................        ",
"      ....................      ",
"      ....................      ",
"    ........        ........    ",
"    ........        ........    ",
"    ......            ......    ",
"    ......            ......    ",
"    ......                      ",
"    ......                      ",
"    ......                      ",
"    ......                      ",
"    ....................        ",
"    ....................        ",
"    ......................      ",
"    ......................      ",
"    ........        ........    ",
"    ........        ........    ",
"    ......            ......    ",
"    ......            ......    ",
"    ......            ......    ",
"    ......            ......    ",
"    ......            ......    ",
"    ......            ......    ",
"    ........        ........    ",
"    ........        ........    ",
"      ....................      ",
"      ....................      ",
"        ................        ",
"        ................        "
};
