/* XPM */
static char *_cf33618e1e2425df4ca9deae1a3babcfzwkchdDZmtQ7gJW[] = {
/* columns rows colors chars-per-pixel */
"32 32 2 1 ",
"  c None",
". c white",
/* pixels */
"                                ",
"                                ",
"    ........................    ",
"    ........................    ",
"    ........................    ",
"    ........................    ",
"                      ......    ",
"                      ......    ",
"                    ........    ",
"                    ........    ",
"                  ..........    ",
"                  ..........    ",
"                ........        ",
"                ........        ",
"              ........          ",
"              ........          ",
"            ........            ",
"            ........            ",
"          ........              ",
"          ........              ",
"        ........                ",
"        ........                ",
"      ........                  ",
"      ........                  ",
"    ........                    ",
"    ........                    ",
"    ......                      ",
"    ......                      ",
"    ......                      ",
"    ......                      ",
"    ......                      ",
"    ......                      "
};
