/* XPM */
static char *_08c1259c7164d12961c79f5e9d17d47ZkfJFPPSr9Tl079E[] = {
/* columns rows colors chars-per-pixel */
"32 32 2 1 ",
"  c None",
". c white",
/* pixels */
"                                ",
"                                ",
"      ....................      ",
"      ....................      ",
"      ....................      ",
"      ....................      ",
"  ..........        ..........  ",
"  ..........        ..........  ",
"  ........            ........  ",
"  ........            ........  ",
"  ........            ........  ",
"  ........            ........  ",
"  ..........        ..........  ",
"  ..........        ..........  ",
"      ....................      ",
"      ....................      ",
"      ....................      ",
"      ....................      ",
"  ..........        ..........  ",
"  ..........        ..........  ",
"  ........            ........  ",
"  ........            ........  ",
"  ........            ........  ",
"  ........            ........  ",
"  ........            ........  ",
"  ........            ........  ",
"  ..........        ..........  ",
"  ..........        ..........  ",
"      ....................      ",
"      ....................      ",
"      ....................      ",
"      ....................      "
};
