/* XPM */
static char *ad65c8749727426885d332eac2434fc1tbXuRyPWJP9uGJIo[] = {
/* columns rows colors chars-per-pixel */
"32 32 2 1 ",
"  c None",
". c white",
/* pixels */
"                                ",
"                                ",
"        ................        ",
"        ................        ",
"        ................        ",
"        ................        ",
"    ........        ........    ",
"    ........        ........    ",
"    ......            ......    ",
"    ......            ......    ",
"    ......            ......    ",
"    ......            ......    ",
"    ........        ........    ",
"    ........        ........    ",
"        ....................    ",
"        ....................    ",
"        ....................    ",
"        ....................    ",
"                    ........    ",
"                    ........    ",
"                      ......    ",
"                      ......    ",
"                      ......    ",
"                      ......    ",
"    ......            ......    ",
"    ......            ......    ",
"    ........        ........    ",
"    ........        ........    ",
"        ..................      ",
"        ..................      ",
"        ................        ",
"        ................        "
};
