/* XPM */
static char *_d532344e3a64096b9b5976f003eef46J6htKlivECUGCWb3[] = {
/* columns rows colors chars-per-pixel */
"32 32 2 1 ",
"  c None",
". c white",
/* pixels */
"                                ",
"                                ",
"  ............................  ",
"  ............................  ",
"  ............................  ",
"  ............................  ",
"  ..........................    ",
"  ..........................    ",
"  ..........                    ",
"  ..........                    ",
"  ..........                    ",
"  ..........                    ",
"  ..........                    ",
"  ..........                    ",
"  ......................        ",
"  ......................        ",
"  ......................        ",
"  ......................        ",
"  ......................        ",
"  ......................        ",
"  ..........                    ",
"  ..........                    ",
"  ..........                    ",
"  ..........                    ",
"  ..........                    ",
"  ..........                    ",
"  ..........................    ",
"  ..........................    ",
"  ............................  ",
"  ............................  ",
"  ............................  ",
"  ............................  "
};
