/* XPM */
static char *c07759031a4e4563ddb804701d96ba36Lad78Q0pvStHHQ6n[] = {
/* columns rows colors chars-per-pixel */
"32 32 2 1 ",
"  c None",
". c white",
/* pixels */
"                                ",
"                                ",
"  ......................        ",
"  ......................        ",
"  ........................      ",
"  ........................      ",
"  ........        ..........    ",
"  ........        ..........    ",
"  ........          ........    ",
"  ........          ........    ",
"  ........          ........    ",
"  ........          ........    ",
"  ........          ........    ",
"  ........          ........    ",
"  ........          ........    ",
"  ........          ........    ",
"  ........        ..........    ",
"  ........        ..........    ",
"  ........................      ",
"  ........................      ",
"  ......................        ",
"  ......................        ",
"  ........                      ",
"  ........                      ",
"  ........                      ",
"  ........                      ",
"  ........                      ",
"  ........                      ",
"  ........                      ",
"  ........                      ",
"  ........                      ",
"  ........                      "
};
