/* XPM */
static char *aa0e55b7b9b3408bf2d1f5446dc05dc7pd9hl9oPUzlUO9UZ[] = {
/* columns rows colors chars-per-pixel */
"32 32 2 1 ",
"  c None",
". c white",
/* pixels */
"                                ",
"                                ",
"      ....................      ",
"      ....................      ",
"    ........................    ",
"    ........................    ",
"  ............................  ",
"  ............................  ",
"  ..........        ..........  ",
"  ..........        ..........  ",
"  ..........        ..........  ",
"  ..........        ..........  ",
"  ..........                    ",
"  ..........                    ",
"    ......................      ",
"    ......................      ",
"      ....................      ",
"      ....................      ",
"      ......................    ",
"      ......................    ",
"                    ..........  ",
"                    ..........  ",
"  ........          ..........  ",
"  ........          ..........  ",
"  ..........        ..........  ",
"  ..........        ..........  ",
"  ..........................    ",
"  ..........................    ",
"    ........................    ",
"    ........................    ",
"      ....................      ",
"      ....................      "
};
