/* XPM */
static char *_82c9edcee1548b7eeac8c43c67072b2JARjwWvTc0mzGSUc[] = {
/* columns rows colors chars-per-pixel */
"32 32 2 1 ",
"  c None",
". c white",
/* pixels */
"                                ",
"                                ",
"  ............................  ",
"  ............................  ",
"  ............................  ",
"  ............................  ",
"  ............................  ",
"  ............................  ",
"  ....       ......       ....  ",
"  ....       ......       ....  ",
"             ......             ",
"             ......             ",
"             ......             ",
"             ......             ",
"             ......             ",
"             ......             ",
"             ......             ",
"             ......             ",
"             ......             ",
"             ......             ",
"             ......             ",
"             ......             ",
"             ......             ",
"             ......             ",
"             ......             ",
"             ......             ",
"             ......             ",
"             ......             ",
"           ..........           ",
"           ..........           ",
"           ..........           ",
"           ..........           "
};
