/* XPM */
static char *cd5e6d0f8b1c4f1b8c9b6478f341263fnC6ojaCHxlvFfeYa[] = {
/* columns rows colors chars-per-pixel */
"64 64 11 1 ",
"  c #FF00FF",
". c #011C15",
"X c #4E160C",
"o c #7A4632",
"O c #93221B",
"+ c #C4351F",
"@ c #C3774B",
"# c #FD6E53",
"$ c #B8A19D",
"% c #DBB293",
"& c #FCF4F3",
/* pixels */
"                      ................                          ",
"                      ................                          ",
"                  ....++++++++++++++++....                      ",
"                  ....++++++++++++++++....                      ",
"            ......++++++########&&++++++++......                ",
"            ......++++++########&&++++++++......                ",
"          ..++&&&&######&&####++++++++&&&&++++OO..              ",
"          ..++&&&&######&&####++++++++&&&&++++OO..              ",
"        ..++##############++++++++++++&&&&++++OO$$..            ",
"        ..++##############++++++++++++&&&&++++OO$$..            ",
"      ..############&&&&++++++++++++++++++++++++$$$$..          ",
"      ..############&&&&++++++++++++++++++++++++$$$$..          ",
"    ..++&&####++++++&&&&++++++++++++++++++++++++OOOOXX..        ",
"    ..++&&####++++++&&&&++++++++++++++++++++++++OOOOXX..        ",
"    ..++++++++++++++++++++++++++++$$++++++++++OOOOOOOO..        ",
"    ..++++++++++++++++++++++++++++$$++++++++++OOOOOOOO..        ",
"  ..OO++++++++++++++++++$$$$++++++++++++++++OOOO$$$$OOXX..      ",
"  ..OO++++++++++++++++++$$$$++++++++++++++++OOOO$$$$OOXX..      ",
"  ..OO&&OO++++++++++++++$$$$++++++++++++OOOOOOOO$$$$OOXX..      ",
"  ..OO&&OO++++++++++++++$$$$++++++++++++OOOOOOOO$$$$OOXX..      ",
"..XXOO&&OOOOOOOO++++++++++++++++++OOOOOOOOOOOOOOOOOOOOXXXX..    ",
"..XXOO&&OOOOOOOO++++++++++++++++++OOOOOOOOOOOOOOOOOOOOXXXX..    ",
"..XXOOOOOOOOOOOOOOOOOOOOOOOOOOOOOOOOOO$$$$OOOOOOOOXXXXXXXX..    ",
"..XXOOOOOOOOOOOOOOOOOOOOOOOOOOOOOOOOOO$$$$OOOOOOOOXXXXXXXX..    ",
"..XXXXXXOOOOOOOO$$OOOOOOOOOOOOOOOOOOOO$$$$OOXXXXXXXXXXXXXX..    ",
"..XXXXXXOOOOOOOO$$OOOOOOOOOOOOOOOOOOOO$$$$OOXXXXXXXXXXXXXX..    ",
"..XXXXXXXXXXOOOOOOOOOOOOOOOOOOOOOOOOXXXXXXXXXXXXXX$$XXXXXX..    ",
"..XXXXXXXXXXOOOOOOOOOOOOOOOOOOOOOOOOXXXXXXXXXXXXXX$$XXXXXX..    ",
"..XXXXXXXXXXXXXXXXXXXXXXXXXXXXXXXXXXXXXXXXXXXXXXXXXXXXXXXX..    ",
"..XXXXXXXXXXXXXXXXXXXXXXXXXXXXXXXXXXXXXXXXXXXXXXXXXXXXXXXX..    ",
"  ..................oooooooooooooooooooo..................      ",
"  ..................oooooooooooooooooooo..................      ",
"                  ..................@@@@..                      ",
"                  ..................@@@@..                      ",
"                  ..@@&&oo@@&&oooo@@@@@@..                      ",
"                  ..@@&&oo@@&&oooo@@@@@@..                      ",
"                  ..%%&&oo%%&&oooo@@%%%%..                      ",
"                  ..%%&&oo%%&&oooo@@%%%%..                      ",
"                  ..%%%%%%%%%%%%%%%%%%%%..                      ",
"                  ..%%%%%%%%%%%%%%%%%%%%..                      ",
"            ......%%%%%%%%%%%%%%......%%..                      ",
"            ......%%%%%%%%%%%%%%......%%..                      ",
"          ..@@@@..%%%%%%oooo%%..@@@@@@..%%..                    ",
"          ..@@@@..%%%%%%oooo%%..@@@@@@..%%..                    ",
"          ..@@@@..%%%%%%%%%%%%..@@@@@@..%%..                    ",
"          ..@@@@..%%%%%%%%%%%%..@@@@@@..%%..                    ",
"          ..@@@@..%%%%%%%%%%%%..@@@@@@..%%..                    ",
"          ..@@@@..%%%%%%%%%%%%..@@@@@@..%%..                    ",
"            ......%%%%%%%%%%%%%%......%%%%..                    ",
"            ......%%%%%%%%%%%%%%......%%%%..                    ",
"                ..%%%%%%%%%%%%%%%%%%%%%%%%..                    ",
"                ..%%%%%%%%%%%%%%%%%%%%%%%%..                    ",
"                  ..%%%%%%%%%%%%%%%%%%%%..                      ",
"                  ..%%%%%%%%%%%%%%%%%%%%..                      ",
"                    ..@@%%%%%%%%%%%%@@....                      ",
"                    ..@@%%%%%%%%%%%%@@....                      ",
"                    ..@@@@......@@@@@@@@..                      ",
"                    ..@@@@......@@@@@@@@..                      ",
"                    ..@@@@@@..  ..%%@@@@..                      ",
"                    ..@@@@@@..  ..%%@@@@..                      ",
"                    ..@@@@@@..  ..%%%%%%..                      ",
"                    ..@@@@@@..  ..%%%%%%..                      ",
"                    ..@@@@..      ..%%%%..                      ",
"                    ..@@@@..      ..%%%%..                      "
};
