/* XPM */
static char *a0f368ccf5914163c4aa80a90a92cf7c2Cec53tXKZfS4uo4[] = {
/* columns rows colors chars-per-pixel */
"64 64 11 1 ",
"  c #FF00FF",
". c #011C15",
"X c #4E160C",
"o c #7A4632",
"O c #93221B",
"+ c #C4351F",
"@ c #C3774B",
"# c #FD6E53",
"$ c #B8A19D",
"% c #DBB293",
"& c #FCF4F3",
/* pixels */
"                                                                ",
"                                                                ",
"                      ................                          ",
"                      ................                          ",
"                  ....++++++++++++++++....                      ",
"                  ....++++++++++++++++....                      ",
"            ......++++++########&&++++++++......                ",
"            ......++++++########&&++++++++......                ",
"          ..++&&&&######&&####++++++++&&&&++++OO..              ",
"          ..++&&&&######&&####++++++++&&&&++++OO..              ",
"        ..++##############++++++++++++&&&&++++OO$$..            ",
"        ..++##############++++++++++++&&&&++++OO$$..            ",
"      ..############&&&&++++++++++++++++++++++++$$$$..          ",
"      ..############&&&&++++++++++++++++++++++++$$$$..          ",
"    ..++&&####++++++&&&&++++++++++++++++++++++++OOOOXX..        ",
"    ..++&&####++++++&&&&++++++++++++++++++++++++OOOOXX..        ",
"    ..++++++++++++++++++++++++++++$$++++++++++OOOOOOOO..        ",
"    ..++++++++++++++++++++++++++++$$++++++++++OOOOOOOO..        ",
"  ..OO++++++++++++++++++$$$$++++++++++++++++OOOO$$$$OOXX..      ",
"  ..OO++++++++++++++++++$$$$++++++++++++++++OOOO$$$$OOXX..      ",
"  ..OO&&OO++++++++++++++$$$$++++++++++++OOOOOOOO$$$$OOXX..      ",
"  ..OO&&OO++++++++++++++$$$$++++++++++++OOOOOOOO$$$$OOXX..      ",
"..XXOO&&OOOOOOOO++++++++++++++++++OOOOOOOOOOOOOOOOOOOOXXXX..    ",
"..XXOO&&OOOOOOOO++++++++++++++++++OOOOOOOOOOOOOOOOOOOOXXXX..    ",
"..XXOOOOOOOOOOOOOOOOOOOOOOOOOOOOOOOOOO$$$$OOOOOOOOXXXXXXXX..    ",
"..XXOOOOOOOOOOOOOOOOOOOOOOOOOOOOOOOOOO$$$$OOOOOOOOXXXXXXXX..    ",
"..XXXXXXOOOOOOOO$$OOOOOOOOOOOOOOOOOOOO$$$$OOXXXXXXXXXXXXXX..    ",
"..XXXXXXOOOOOOOO$$OOOOOOOOOOOOOOOOOOOO$$$$OOXXXXXXXXXXXXXX..    ",
"..XXXXXXXXXXOOOOOOOOOOOOOOOOOOOOOOOOXXXXXXXXXXXXXX$$XXXXXX..    ",
"..XXXXXXXXXXOOOOOOOOOOOOOOOOOOOOOOOOXXXXXXXXXXXXXX$$XXXXXX..    ",
"..XXXXXXXXXXXXXXXXXXXXXXXXXXXXXXXXXXXXXXXXXXXXXXXXXXXXXXXX..    ",
"..XXXXXXXXXXXXXXXXXXXXXXXXXXXXXXXXXXXXXXXXXXXXXXXXXXXXXXXX..    ",
"  ..................oooooooooooooooooooo..................      ",
"  ..................oooooooooooooooooooo..................      ",
"                  ..................@@@@..                      ",
"                  ..................@@@@..                      ",
"                  ..@@&&oo@@&&oooo@@@@@@..                      ",
"                  ..@@&&oo@@&&oooo@@@@@@..                      ",
"                  ..%%&&oo%%&&oooo@@%%%%..                      ",
"                  ..%%&&oo%%&&oooo@@%%%%..                      ",
"                  ..%%%%%%%%%%%%%%%%%%%%..                      ",
"                  ..%%%%%%%%%%%%%%%%%%%%..                      ",
"                ..%%%%%%%%%%%%%%%%%%%%%%..                      ",
"                ..%%%%%%%%%%%%%%%%%%%%%%..                      ",
"            ......%%%%%%oooo%%%%......%%%%..                    ",
"            ......%%%%%%oooo%%%%......%%%%..                    ",
"          ..@@@@..%%%%%%%%%%%%..@@@@@@..%%..                    ",
"          ..@@@@..%%%%%%%%%%%%..@@@@@@..%%..                    ",
"          ..@@@@..%%%%%%%%%%%%..@@@@@@..%%..                    ",
"          ..@@@@..%%%%%%%%%%%%..@@@@@@..%%..                    ",
"          ..@@@@..%%%%%%%%%%%%..@@@@@@..%%..                    ",
"          ..@@@@..%%%%%%%%%%%%..@@@@@@..%%..                    ",
"            ......%%%%%%%%%%%%%%......%%%%..                    ",
"            ......%%%%%%%%%%%%%%......%%%%..                    ",
"                  ..%%%%%%%%%%%%%%%%%%%%..                      ",
"                  ..%%%%%%%%%%%%%%%%%%%%..                      ",
"                    ..@@%%%%%%%%%%%%@@....                      ",
"                    ..@@%%%%%%%%%%%%@@....                      ",
"                    ..@@@@........@@@@@@..                      ",
"                    ..@@@@........@@@@@@..                      ",
"                    ..@@@@@@..  ..%%%%@@..                      ",
"                    ..@@@@@@..  ..%%%%@@..                      ",
"                    ..@@@@..      ..%%%%..                      ",
"                    ..@@@@..      ..%%%%..                      "
};
