/* XPM */
static char *_2dbe2b2ef1d4a98d0446fc65630a281x0649Akp1Zy7O1mU[] = {
/* columns rows colors chars-per-pixel */
"64 64 19 1 ",
"  c #FF00FF",
". c #170124",
"X c #762B1F",
"o c #983F25",
"O c #A3431D",
"+ c #994027",
"@ c #B9562E",
"# c #C66833",
"$ c #CD7738",
"% c #E6903D",
"& c #E6913D",
"* c #E6913E",
"= c #F1AB4C",
"- c #F1AC4D",
"; c #F2AC51",
": c #C48261",
"> c #F3CC66",
", c #F7C381",
"< c #FDE395",
/* pixels */
"                                                                ",
"                                                                ",
"                                                                ",
"                                                                ",
"                ................                                ",
"                ................                                ",
"                ................                                ",
"                ................                                ",
"            ....XXXXOOOOXXXXXXXX....                            ",
"            ....XXXXOOOOXXXXXXXX....                            ",
"            ....XXXXOOOOXXXXXXXX....                            ",
"            ....XXXXOOOOXXXXXXXX....                            ",
"        ....++++@@@@****$$$$++++XXXX....                        ",
"        ....++++@@@@****$$$$++++XXXX....                        ",
"        ....++++@@@@****$$$$++++XXXX....                        ",
"        ....++++@@@@****$$$$++++XXXX....                        ",
"    ....XXXX@@@@$$$$@@@@@@@@$$$$@@@@....                        ",
"    ....XXXX@@@@$$$$@@@@@@@@$$$$@@@@....                        ",
"    ....XXXX@@@@$$$$@@@@@@@@$$$$@@@@....                        ",
"    ....XXXX@@@@$$$$@@@@@@@@$$$$@@@@....                        ",
"    ....++++####****####----########++++....                    ",
"    ....++++####****####----########++++....                    ",
"    ....++++####****####----########++++....                    ",
"    ....++++####****####----########++++....                    ",
"    ....@@@@$$$$====****>>>>;;;;****$$$$....                    ",
"    ....@@@@$$$$====****>>>>;;;;****$$$$....                    ",
"    ....@@@@$$$$====****>>>>;;;;****$$$$....                    ",
"    ....@@@@$$$$====****>>>>;;;;****$$$$....                    ",
"    ....oooo####$$$$@@@@****----####@@@@++++....                ",
"    ....oooo####$$$$@@@@****----####@@@@++++....                ",
"    ....oooo####$$$$@@@@****----####@@@@++++....                ",
"    ....oooo####$$$$@@@@****----####@@@@++++....                ",
"    ....XXXX@@@@@@@@####$$$$****$$$$####XXXX....                ",
"    ....XXXX@@@@@@@@####$$$$****$$$$####XXXX....                ",
"    ....XXXX@@@@@@@@####$$$$****$$$$####XXXX....                ",
"    ....XXXX@@@@@@@@####$$$$****$$$$####XXXX....                ",
"        ....XXXX++++++++@@@@########XXXX,,,,::::....            ",
"        ....XXXX++++++++@@@@########XXXX,,,,::::....            ",
"        ....XXXX++++++++@@@@########XXXX,,,,::::....            ",
"        ....XXXX++++++++@@@@########XXXX,,,,::::....            ",
"            ............++++++++@@@@++++::::,,,,::::........    ",
"            ............++++++++@@@@++++::::,,,,::::........    ",
"            ............++++++++@@@@++++::::,,,,::::........    ",
"            ............++++++++@@@@++++::::,,,,::::........    ",
"                        ....................::::,,,,<<<<,,,,....",
"                        ....................::::,,,,<<<<,,,,....",
"                        ....................::::,,,,<<<<,,,,....",
"                        ....................::::,,,,<<<<,,,,....",
"                                            ....<<<<::::....    ",
"                                            ....<<<<::::....    ",
"                                            ....<<<<::::....    ",
"                                            ....<<<<::::....    ",
"                                            ....::::,,,,....    ",
"                                            ....::::,,,,....    ",
"                                            ....::::,,,,....    ",
"                                            ....::::,,,,....    ",
"                                                ........        ",
"                                                ........        ",
"                                                ........        ",
"                                                ........        ",
"                                                                ",
"                                                                ",
"                                                                ",
"                                                                "
};
