/* XPM */
static char *ab6e63806a6640f080388a38ac4d7ee7fcDUcwENdBKUGooF[] = {
/* columns rows colors chars-per-pixel */
"64 64 11 1 ",
"a c black",
"X c #003E00",
"o c #34491B",
"O c #00A700",
"+ c #34B11B",
"@ c #56B82E",
"# c #8BC34A",
"  c #A0C169",
". c #BCD476",
"X c #CFE07D",
"o c #E6EEAC",
/* pixels */
"................................................................",
"................................................................",
".................................. . ...........................",
"............ ............ . ....... ...............    .........",
"........... .............. .......................       .......",
"........... ......................................        ......",
".... .............................................        ......",
"..... ............................................        ......",
"..... .... ........................................      .......",
"......... ................................ . ...................",
"......... ......... . ..................... .............    ...",
".................... ...................................      ..",
"........................................................      ..",
".................................... . ..................    ...",
"..................................... ..........................",
"................................................................",
"................................................................",
"................................................................",
"................................................................",
"...........................o.o.....................XXXXX........",
"............................o.....................XXXXXXX.......",
".......o..............................o.o.........XXXXXXX.......",
"......o................................o...........XXXXX........",
"...o..o.........................................................",
"....o.o..................................................XXXX...",
"....o..aaaaaaaaaaaaaaaaaaaaaaaaaaaaaaaaaaaaaaaaaaaaaaaaaaaXXXX..",
"....o..aaaaaaaaaaaaaaaaaaaaaaaaaaaaaaaaaaaaaaaaaaaaaaaaaaaXXXX..",
".......aaaaaaaaaaaaaaaaaaaaaaaaaaaaaaaaaaaaaaaaaaaaaaaaaaaXXX...",
".......aaa############################################aaaa......",
".......aaa############################################aaaa......",
".......aaa############################################aaaa......",
".......aaa###@@@@@@#######@@@@@@@@@@@@@@@@@@@@@@###@@@aaaa......",
".......aaa###OOOOOO#######OOOOOOOOOOOOOOOOOOOOOO###OOOaaaa......",
".......aaa###OOOOOO#######OOOOOOOOOOOOOOOOOOOOOO###OOOaaaa......",
".......aaa###OOOOOO#######OOOOOOOOOOOOOOOOOOOOOO###OOOaaaa......",
".......aaa###OOOOOO#######OOO###OOOOOOOOOOOOOOOOOOO###aaaa......",
".......aaa###OOOOOO#######OOO###OOOOOOOOOOOOOOOOOOO###aaaa......",
".......aaa###OOOOOO#######OOO###OOOOOOOOOOOOOOOOOOO###aaaa......",
".... ..aaa###OOOOOO#######OOO###OOOOOOOOOOOOOOOO###OOOaaaa......",
"..... .aaa###OOOOOO#######OOO###OOOOOOOOOOOOOOOO###OOOaaaa......",
"..... .aaa###OOOOOO#######OOO###OOOOOOOOOOOOOOOO###OOOaaaa......",
".......aaa###OOOOOO#######OOO###OOOOOOOOOOOOOOOOOOO###aaaa......",
".......aaa###OOOOOO#######OOO###OOOOOOOOOOOOOOOOOOO###aaaa   ...",
".......aaa###OOOOOO#######OOO###OOOOOOOOOOOOOOOOOOO###aaaa    ..",
".......aaaaaaaaaaaaaaaaaaaaaaaaaaaaaaaaaaaaaaaaaaaaaaaaaaa    ..",
".......aaaaaaaaaaaaaaaaaaaaaaaaaaaaaaaaaaaaaaaaaaaaaaaaaaa   ...",
".......aaaaaaaaaaaaaaaaaaaaaaaaaaaaaaaaaaaaaaaaaaaaaaaaaaa......",
".......aaaaaaoooXXXXXXoooooooXXXoooXXXXXXXXXXXXXoooaaaaaaa......",
"..........aaa###OOOOOO#######OOO###OOOOOOOOOOOOO###aaa..........",
"..........aaa###OOOOOO#######OOO###OOOOOOOOOOOOO###aaa..........",
"..........aaa###OOOOOO#######OOO###OOOOOOOOOOOOO###aaa..........",
"..........aaa###OOOOOO#######OOO###OOOOOOOOOO###OOOaaaXX........",
"..........aaa###OOOOOO#######OOO###OOOOOOOOOO###OOOaaaXXX.......",
".......o..aaa###OOOOOO#######OOO###OOOOOOOOOO###OOOaaaXXX.......",
"......o...aaa###OOOOOO#######OOO###OOOOOOOOOOOOO###aaaXX........",
"...o..o...aaa###OOOOOO#######OOO###OOOOOOOOOOOOO###aaa..........",
"....o.o...aaa###OOOOOO#######OOO###OOOOOOOOOOOOO###aaa...XXXX...",
"....o.....aaa###OOOOOO#######OOO###OOOOOOOOOO###OOOaaa.XXXXXXX..",
"....o.....aaa###OOOOOO#######OOO###OOOOOOOOOO###OOOaaa.XXXXXXX..",
"..........aaa###OOOOOO#######OOO###OOOOOOOOOO###OOOaaa..XXXXX...",
"..........aaa###OOOOOO#######OOO###OOOOOOOOOOOOO###aaa..........",
"..........aaa###OOOOOO#######OOO###OOOOOOOOOOOOO###aaa..........",
"..........aaa###OOOOOO#######OOO###OOOOOOOOOOOOO###aaa..........",
"..........aaa###OOOOOO#######OOO###OOOOOOOOOO+++@@@aaa.........."
};
