/* XPM */
static char *_5bf709308f44c12f7365e57548241f162hzPQlsMMF8BEXM[] = {
/* columns rows colors chars-per-pixel */
"64 64 18 1 ",
"  c #342424",
". c #30232C",
"X c #4E3F3E",
"o c #543034",
"O c #52453C",
"+ c #7D4438",
"@ c #097D46",
"# c #6B5B4A",
"$ c #6F5C51",
"% c #AE633F",
"& c #847157",
"* c #907962",
"= c #5BA24C",
"- c #9C8865",
"; c #AF9774",
": c #98CA53",
"> c #CFB586",
", c #F0D198",
/* pixels */
"&&&&;;$;;;;;;;:;;&&&&&&&;;$;;;;;;;:;;&&&&&&&;;$;;;;;;;:;;&&&&&&&",
";;;;>>:$>>>>:>=>>;;&;;;;>>:$>>>>:>=>>;;&;;;;>>:$>>>>:>=>>;;&;;;;",
";;;;>>@$$$$$X@$$$$;&;;;;>>@$$$$$X@$$$$;&;;;;>>@$$$$$X@$$$$;&;;;;",
";;;;>>$>>>>>;$>>>>$$;;;;>>$>>>>>;$>>>>$$;;;;>>$>>>>>;$>>>>$$;;;;",
";;>>$$*;;;;;;$*;;;**;;>>$$*;;;;;;$*;;;**;;>>$$*;;;;;;$*;;;**;;>>",
"$$$$;;;;;;;;>$*;;;;;$$$$;;;;;;;;>$*;;;;;$$$$;;;;;;;;>$*;;;;;$$$$",
"***$*>>>>>>>*$$$$$*****$*>>>>>>>*$$$$$*****$*>>>>>>>*$$$$$*****$",
"$>>>>*******;;;;;;;*$>>>>*******;;;;;;;*$>>>>*******;;;;;;;*$>>>",
";>>>*>>>>>>>*>>;***>;>>>*>>>>>>>*>>;***>;>>>*>>>>>>>*>>;***>;>>>",
";>>>;>>>>>>>>***>>>>;>>>;>>>>>>>>***>>>>;>>>;>>>>>>>>***>>>>;>>>",
">>>>;>>>>>>>,*>>>>>>>>>>;>>>>>>>,*>>>>>>>>>>;>>>>>>>,*>>>>>>>>>>",
">>>>;>>>>>>>,*>>>>>>>>>>;>>>>>>>,*>>>>>>>>>>;>>>>>>>,*>>>>>>>>>>",
",,,,;,,,>>,,,*,,,>>>,,,,;,,,>>,,,*,,,>>>,,,,;,,,>>,,,*,,,>>>,,,,",
",,,>$,,,,,,,,X,,,,>,,,,>$,,,,,,,,X,,,,>,,,,>$,,,,,,,,X,,,,>,,,,>",
"***;X$$$$$$$$X;****$***;X$$$$$$$$X;****$***;X$$$$$$$$X;****$***;",
"***;XX$$$$$$$X;****$***;XX$$$$$$$X;****$***;XX$$$$$$$X;****$***;",
"****XXXXXXXXXXX$$$$X****XXXXXXXXXXX$$$$X****XXXXXXXXXXX$$$$X****",
"XXXX@;;;;;;>>>>*;;;;XXXX@;;;;;;>>>>*;;;;XXXX@;;;;;;>>>>*;;;;XXXX",
";+$;>>>>>>>>>,,$>>>%;+$;>>>>>>>>>,,$>>>%;+$;>>>>>>>>>,,$>>>%;+$;",
">>$;>>>>>>>>>,*$,,>o>>$;>>>>>>>>>,*$,,>o>>$;>>>>>>>>>,*$,,>o>>$;",
">$X$$X;>>>;XX$$*;;;;>$X$$X;>>>;XX$$*;;;;>$X$$X;>>>;XX$$*;;;;>$X$",
"$$XXXX$$$$$X$$$X**;;$$XXXX$$$$$X$$$X**;;$$XXXX$$$$$X$$$X**;;$$XX",
"*$.X.........X....XX*$.X.........X....XX*$.X.........X....XX*$.X",
"X...$$$X.X$$$$X=XX$$X...$$$X.X$$$$X=XX$$X...$$$X.X$$$$X=XX$$X...",
"$X.$***$X$****$@X$**$X.$***$X$****$@X$**$X.$***$X$****$@X$**$X.$",
"*$X***********$X*****$X***********$X*****$X***********$X*****$X*",
"***X***********X*******X***********X*******X***********X*******X",
"***;X***;;****;X;;;;***;X***;;****;X;;;;***;X***;;****;X;;;;***;",
";;;;X*;;;;;;;;$X$$;;;;;;X*;;;;;;;;$X$$;;;;;;X*;;;;;;;;$X$$;;;;;;",
"$$$$.$$$$$$$X.....$$$$$$.$$$$$$$X.....$$$$$$.$$$$$$$X.....$$$$$$",
"XXXX..XXXXXXX.X.XX..XXXX..XXXXXXX.X.XX..XXXX..XXXXXXX.X.XX..XXXX",
"....=..........XX$XX....=..........XX$XX....=..........XX$XX....",
"$$$$@$$$$$$$$$$$X$$$$$$$@$$$$$$$$$$$X$$$$$$$@$$$$$$$$$$$X$$$$$$$",
"$$$$$X$$$$$$$$$$X$$$$$$$$X$$$$$$$$$$X$$$$$$$$X$$$$$$$$$$X$$$$$$$",
"$****X*$$$$*X***X$$$$****X*$$$$*X***X$$$$****X*$$$$*X***X$$$$***",
"*XXX.XX****X.XXX.****XXX.XX****X.XXX.****XXX.XX****X.XXX.****XXX",
"XXX..XXXXXX...XXX$XXXXX..XXXXXX...XXX$XXXXX..XXXXXX...XXX$XXXXX.",
"XXX..X........XXX$XXXXX..X........XXX$XXXXX..X........XXX$XXXXX.",
"..... O....XX$$$$..X..... O....XX$$$$..X..... O....XX$$$$..X....",
"      O:O.....@ @:        O:O.....@ @:        O:O.....@ @:      ",
"OOOOOOO##OOOO..&;*O:OOOOOOO##OOOO..&;*O:OOOOOOO##OOOO..&;*O:OOOO",
"::O:O&&&&&&&OOOOOOO=::O:O&&&&&&&OOOOOOO=::O:O&&&&&&&OOOOOOO=::O:",
"OOO@OOO----O$$$$$$$$OOO@OOO----O$$$$$$$$OOO@OOO----O$$$$$$$$OOO@",
"&&&&&&&O-OO;;;;;;;;;&&&&&&&O-OO;;;;;;;;;&&&&&&&O-OO;;;;;;;;;&&&&",
";;;;;;;OO;;;;;;;;;;;;;;;;;;OO;;;;;;;;;;;;;;;;;;OO;;;;;;;;;;;;;;;",
";;;;;$$.O:;;;;;$O$$$;;;;;$$.O:;;;;;$O$$$;;;;;$$.O:;;;;;$O$$$;;;;",
">$$$$OO.:o;;;;$O*;;*>$$$$OO.:o;;;;$O*;;*>$$$$OO.:o;;;;$O*;;*>$$$",
"$OOOOoo%@%o**$OoOOOO$OOOOoo%@%o**$OoOOOO$OOOOoo%@%o**$OoOOOO$OOO",
"OOooo%%%%%%oooooooooOOooo%%%%%%oooooooooOOooo%%%%%%oooooooooOOoo",
"....=..........XX$XX....=..........XX$XX....=..........XX$XX....",
"$$$$@$$$$$$$$$$$X$$$$$$$@$$$$$$$$$$$X$$$$$$$@$$$$$$$$$$$X$$$$$$$",
"$$$$$X$$$$$$$$$$X$$$$$$$$X$$$$$$$$$$X$$$$$$$$X$$$$$$$$$$X$$$$$$$",
"$****X*$$$$*X***X$$$$****X*$$$$*X***X$$$$****X*$$$$*X***X$$$$***",
"*XXX.XX****X.XXX.****XXX.XX****X.XXX.****XXX.XX****X.XXX.****XXX",
"XXX..XXXXXX...XXX$XXXXX..XXXXXX...XXX$XXXXX..XXXXXX...XXX$XXXXX.",
"XXX..X........XXX$XXXXX..X........XXX$XXXXX..X........XXX$XXXXX.",
"..... O....XX$$$$..X..... O....XX$$$$..X..... O....XX$$$$..X....",
"      O:O.....@ @:        O:O.....@ @:        O:O.....@ @:      ",
"OOOOOOO##OOOO..&;*O:OOOOOOO##OOOO..&;*O:OOOOOOO##OOOO..&;*O:OOOO",
"::O:O&&&&&&&OOOOOOO=::O:O&&&&&&&OOOOOOO=::O:O&&&&&&&OOOOOOO=::O:",
"....=..........XX$XX....=..........XX$XX....=..........XX$XX....",
"$$$$@$$$$$$$$$$$X$$$$$$$@$$$$$$$$$$$X$$$$$$$@$$$$$$$$$$$X$$$$$$$",
"$$$$$X$$$$$$$$$$X$$$$$$$$X$$$$$$$$$$X$$$$$$$$X$$$$$$$$$$X$$$$$$$",
"$****X*$$$$*X***X$$$$****X*$$$$*X***X$$$$****X*$$$$*X***X$$$$***"
};
