/* XPM */
static char *_e4b25850ee44eb4ede53a1ad569bdabNIuIcC86EaB8zUdl[] = {
/* columns rows colors chars-per-pixel */
"17 24 8 1 ",
"  c None",
". c #382121",
"X c #A04345",
"o c #BC4D4F",
"O c #4B9A27",
"+ c #D8B78F",
"@ c #FFD7A8",
"# c white",
/* pixels */
"                 ",
"                 ",
"                 ",
"      .........  ",
"   ...XXooooooo. ",
"  ..X...XooXXXo. ",
" .O..###.o.ooo.. ",
" .O..###.oooooo. ",
" ....###.oooooo. ",
"  .O..#.ooooooo. ",
"  .O..#.Xoooo... ",
"  ...X.XXXo..    ",
"  ..XXoooo.      ",
"   .X+@@@@.      ",
"   .X+@@@@.      ",
" ..oX+@@@@..     ",
" .oXXXo++oo.     ",
" ...XooooXX.     ",
"   .Xo.....      ",
"   .X.           ",
"   ..            ",
"                 ",
"                 ",
"                 "
};
