/* XPM */
static char *d8cead19756641beab3cc3113bf4a64fw0uHEUUNkZlIvTWa[] = {
/* columns rows colors chars-per-pixel */
"17 24 2 1 ",
"  c None",
". c white",
/* pixels */
"                 ",
"                 ",
"                 ",
"                 ",
"      .........  ",
"   ............. ",
"  .............. ",
" ............... ",
" ............... ",
" ............... ",
"  .............. ",
"  .............. ",
"  ...........    ",
"   ........      ",
"    ........     ",
"  ...........    ",
"  ...........    ",
"  ...........    ",
"    ........     ",
"    ...          ",
"    ..           ",
"                 ",
"                 ",
"                 "
};
