/* XPM */
static char *_2c2ef62d7794d57c1a458e36919b4e4bOE1UBFeKmskSJ7z[] = {
/* columns rows colors chars-per-pixel */
"17 24 8 1 ",
"  c None",
". c #382121",
"X c #A04345",
"o c #BC4D4F",
"O c #4B9A27",
"+ c #D8B78F",
"@ c #FFD7A8",
"# c white",
/* pixels */
"                 ",
"                 ",
"                 ",
"                 ",
"   ............  ",
"  ..XXXXooooooo. ",
" .O.XXXXXooXXXo. ",
" .O.X#.#Xo.ooo.. ",
" ...X#.#Xoooooo. ",
"  .O.#.#Xoooooo. ",
"  .O.XXXXoooooo. ",
"  ...XXXXXo..... ",
"  ..XXoooo.      ",
"   .X+@@@@.      ",
" ...X+@@@@.      ",
" .ooX+@@@@.      ",
" ..XXXo++o.      ",
"  ..Xooooo.      ",
"   .Xo..Xo.      ",
"   .X. .X.       ",
"   ..  ..        ",
"                 ",
"                 ",
"                 "
};
