/* XPM */
static char *_c152507b16b408aef5a6d7e1c6db0d74aaDcZh1QlpBQmZ0[] = {
/* columns rows colors chars-per-pixel */
"17 24 8 1 ",
"  c None",
". c #382121",
"X c #A04345",
"o c #BC4D4F",
"O c #4B9A27",
"+ c #D8B78F",
"@ c #FFD7A8",
"# c white",
/* pixels */
"                 ",
"                 ",
"                 ",
"                 ",
"   ............  ",
"  ..XXXXooooooo. ",
" .O.XXXXXooXXXo. ",
" .O.X#.#Xo.ooo.. ",
" ...X#.#Xoooooo. ",
"  .O.#.#Xoooooo. ",
"  .O.XXXXoooooo. ",
"  ...XXXXXo..... ",
"  ..XXoooo.      ",
"   .XXoooo.      ",
"   .X+@@@@.      ",
" ..oX+@@@@.      ",
" .oXX+@@@@.      ",
"  .XXXo++o.      ",
"   .Xooooo.      ",
"   .Xo..Xo.      ",
"   ... ...       ",
"                 ",
"                 ",
"                 "
};
