/* XPM */
static char *_88b826738c545c583c287bc3c1bd7cftl1voHBl939UMEA2[] = {
/* columns rows colors chars-per-pixel */
"64 64 8 1 ",
"  c #FF00FF",
". c #382121",
"X c #A04345",
"o c #BC4D4F",
"O c #4B9A27",
"+ c #D8B78F",
"@ c #FFD7A8",
"# c white",
/* pixels */
"                                                                ",
"                                                                ",
"                                                                ",
"                                                                ",
"        .............................................           ",
"        .............................................           ",
"        .............................................           ",
"        .............................................           ",
"    ....ooooooooooooooooooooooooooXXXXXXXXXXXXXXX.......        ",
"    ....ooooooooooooooooooooooooooXXXXXXXXXXXXXXX.......        ",
"    ....ooooooooooooooooooooooooooXXXXXXXXXXXXXXX.......        ",
"    ....oooXXXXXXXXXXXXoooooooXXXXXXXXXXXXXXXXXXX....OOO....    ",
"    ....oooXXXXXXXXXXXXoooooooXXXXXXXXXXXXXXXXXXX....OOO....    ",
"    ....oooXXXXXXXXXXXXoooooooXXXXXXXXXXXXXXXXXXX....OOO....    ",
"    ....oooXXXXXXXXXXXXoooooooXXXXXXXXXXXXXXXXXXX....OOO....    ",
"    .......oooooooooooo...ooooXXXX####...####XXXX....OOO....    ",
"    .......oooooooooooo...ooooXXXX####...####XXXX....OOO....    ",
"    .......oooooooooooo...ooooXXXX####...####XXXX....OOO....    ",
"    .......oooooooooooo...ooooXXXX####...####XXXX....OOO....    ",
"    ....ooooooooooooooooooooooXXXX####...####XXXX...........    ",
"    ....ooooooooooooooooooooooXXXX####...####XXXX...........    ",
"    ....ooooooooooooooooooooooXXXX####...####XXXX...........    ",
"    ....ooooooooooooooooooooooXXXX####...####XXXX...........    ",
"    ....ooooooooooooooooooooooXXXX####...####....OOOO...        ",
"    ....ooooooooooooooooooooooXXXX####...####....OOOO...        ",
"    ....ooooooooooooooooooooooXXXX####...####....OOOO...        ",
"    ....ooooooooooooooooooooooXXXXXXXXXXXXXXX....OOOO...        ",
"    ....ooooooooooooooooooooooXXXXXXXXXXXXXXX....OOOO...        ",
"    ....ooooooooooooooooooooooXXXXXXXXXXXXXXX....OOOO...        ",
"    ....ooooooooooooooooooooooXXXXXXXXXXXXXXX....OOOO...        ",
"    ...................oooXXXXXXXXXXXXXXXXXXX...........        ",
"    ...................oooXXXXXXXXXXXXXXXXXXX...........        ",
"    ...................oooXXXXXXXXXXXXXXXXXXX...........        ",
"    ...................oooXXXXXXXXXXXXXXXXXXX...........        ",
"                       ...oooooooooooooooXXXXXXXX.......        ",
"                       ...oooooooooooooooXXXXXXXX.......        ",
"                       ...oooooooooooooooXXXXXXXX.......        ",
"                       ...oooooooooooooooXXXXXXXX.......        ",
"                       ...@@@@@@@@@@@@@@@++++XXXX....           ",
"                       ...@@@@@@@@@@@@@@@++++XXXX....           ",
"                       ...@@@@@@@@@@@@@@@++++XXXX....           ",
"                       ...@@@@@@@@@@@@@@@++++XXXX...........    ",
"                       ...@@@@@@@@@@@@@@@++++XXXX...........    ",
"                       ...@@@@@@@@@@@@@@@++++XXXX...........    ",
"                       ...@@@@@@@@@@@@@@@++++XXXX...........    ",
"                       ...@@@@@@@@@@@@@@@++++XXXXooooooo....    ",
"                       ...@@@@@@@@@@@@@@@++++XXXXooooooo....    ",
"                       ...@@@@@@@@@@@@@@@++++XXXXooooooo....    ",
"                       ...@@@@@@@@@@@@@@@++++XXXXooooooo....    ",
"                       ...oooo++++++++oooXXXXXXXXXXXX.......    ",
"                       ...oooo++++++++oooXXXXXXXXXXXX.......    ",
"                       ...oooo++++++++oooXXXXXXXXXXXX.......    ",
"                       ...oooo++++++++oooXXXXXXXXXXXX.......    ",
"                       ...oooooooooooooooooooXXXX.......        ",
"                       ...oooooooooooooooooooXXXX.......        ",
"                       ...oooooooooooooooooooXXXX.......        ",
"                       ...ooooXXXX.......ooooXXXX....           ",
"                       ...ooooXXXX.......ooooXXXX....           ",
"                       ...ooooXXXX.......ooooXXXX....           ",
"                       ...ooooXXXX.......ooooXXXX....           ",
"                          ............   ............           ",
"                          ............   ............           ",
"                          ............   ............           ",
"                          ............   ............           "
};
