/* XPM */
static char *ad38c1d6b30d447afdd928861168378eUhEVOXwbgqf8QcDS[] = {
/* columns rows colors chars-per-pixel */
"17 24 8 1 ",
"  c None",
". c #382121",
"X c #A04345",
"o c #BC4D4F",
"O c #4B9A27",
"+ c #D8B78F",
"@ c #FFD7A8",
"# c white",
/* pixels */
"                 ",
"                 ",
"                 ",
"                 ",
"      .........  ",
"   ...XXooooooo. ",
"  ..XXXXXooXXXo. ",
" .O.X#.XXo.ooo.. ",
" .O.X#.#Xoooooo. ",
" ...X#.#Xoooooo. ",
"  .O.XXXooooooo. ",
"  .O.XXXXoooo... ",
"  ...XXXXXo..    ",
"   .o+@@@@.      ",
"    .X+@@@@.     ",
"  ..oX+@@@@..    ",
"  .oXXXo++oo.    ",
"  ...Xoo.oXX.    ",
"    .Xo.....     ",
"    .X.          ",
"    ..           ",
"                 ",
"                 ",
"                 "
};
