/* XPM */
static char *c50f7ccb56ab410a8b2b13edf3d9d53ewng7gZANZAgDposJ[] = {
/* columns rows colors chars-per-pixel */
"64 64 8 1 ",
"  c #FF00FF",
". c #382121",
"X c #A04345",
"o c #BC4D4F",
"O c #4B9A27",
"+ c #D8B78F",
"@ c #FFD7A8",
"# c white",
/* pixels */
"                                                                ",
"                                                                ",
"                                                                ",
"        .............................................           ",
"        .............................................           ",
"        .............................................           ",
"        .............................................           ",
"    ....ooooooooooooooooooooooooooXXXXXXXXXXXXXXX.......        ",
"    ....ooooooooooooooooooooooooooXXXXXXXXXXXXXXX.......        ",
"    ....ooooooooooooooooooooooooooXXXXXXXXXXXXXXX.......        ",
"    ....ooooooooooooooooooooooooooXXXXXXXXXXXXXXX.......        ",
"    ....oooXXXXXXXXXXXXoooooooXXXXXXXXXXXXXXXXXXX....OOO....    ",
"    ....oooXXXXXXXXXXXXoooooooXXXXXXXXXXXXXXXXXXX....OOO....    ",
"    ....oooXXXXXXXXXXXXoooooooXXXXXXXXXXXXXXXXXXX....OOO....    ",
"    .......oooooooooooo...ooooXXXX####...####XXXX....OOO....    ",
"    .......oooooooooooo...ooooXXXX####...####XXXX....OOO....    ",
"    .......oooooooooooo...ooooXXXX####...####XXXX....OOO....    ",
"    .......oooooooooooo...ooooXXXX####...####XXXX....OOO....    ",
"    ....ooooooooooooooooooooooXXXX####...####XXXX...........    ",
"    ....ooooooooooooooooooooooXXXX####...####XXXX...........    ",
"    ....ooooooooooooooooooooooXXXX####...####XXXX...........    ",
"    ....ooooooooooooooooooooooXXXX####...####XXXX...........    ",
"    ....ooooooooooooooooooooooXXXX####...####....OOOO...        ",
"    ....ooooooooooooooooooooooXXXX####...####....OOOO...        ",
"    ....ooooooooooooooooooooooXXXX####...####....OOOO...        ",
"    ....ooooooooooooooooooooooXXXX####...####....OOOO...        ",
"    ....ooooooooooooooooooooooXXXXXXXXXXXXXXX....OOOO...        ",
"    ....ooooooooooooooooooooooXXXXXXXXXXXXXXX....OOOO...        ",
"    ....ooooooooooooooooooooooXXXXXXXXXXXXXXX....OOOO...        ",
"    ...................oooXXXXXXXXXXXXXXXXXXX...........        ",
"    ...................oooXXXXXXXXXXXXXXXXXXX...........        ",
"    ...................oooXXXXXXXXXXXXXXXXXXX...........        ",
"    ...................oooXXXXXXXXXXXXXXXXXXX...........        ",
"                       ...oooooooooooooooXXXXXXXX.......        ",
"                       ...oooooooooooooooXXXXXXXX.......        ",
"                       ...oooooooooooooooXXXXXXXX.......        ",
"                       ...oooooooooooooooXXXXXXXX.......        ",
"                       ...@@@@@@@@@@@@@@@++++XXXX....           ",
"                       ...@@@@@@@@@@@@@@@++++XXXX....           ",
"                       ...@@@@@@@@@@@@@@@++++XXXX....           ",
"                       ...@@@@@@@@@@@@@@@++++XXXX....           ",
"                       ...@@@@@@@@@@@@@@@++++XXXX....           ",
"                       ...@@@@@@@@@@@@@@@++++XXXX....           ",
"                       ...@@@@@@@@@@@@@@@++++XXXX....           ",
"                       ...@@@@@@@@@@@@...++++XXXXoooo.......    ",
"                       ...@@@@@@@@@@@@...++++XXXXoooo.......    ",
"                       ...@@@@@@@@@@@@...++++XXXXoooo.......    ",
"                       ...@@@@@@@@@@@@...++++XXXXoooo.......    ",
"                       ...oooo++++....oooooooXXXXXXXXooo....    ",
"                       ...oooo++++....oooooooXXXXXXXXooo....    ",
"                       ...oooo++++....oooooooXXXXXXXXooo....    ",
"                       ...oooo++++....oooooooXXXXXXXXooo....    ",
"                       ...ooooXXXX....oooooooXXXX...........    ",
"                       ...ooooXXXX....oooooooXXXX...........    ",
"                       ...ooooXXXX....oooooooXXXX...........    ",
"                       ...ooooXXXX....oooooooXXXX...........    ",
"                          ............oooXXXX....               ",
"                          ............oooXXXX....               ",
"                          ............oooXXXX....               ",
"                                  ...............               ",
"                                  ...............               ",
"                                  ...............               ",
"                                  ...............               ",
"                                                                "
};
