/* XPM */
static char *_ead992891104c77a4e5aaf4ef902d17RGhq5qGDlILrlcS8[] = {
/* columns rows colors chars-per-pixel */
"64 64 8 1 ",
"  c #FF00FF",
". c #382121",
"X c #A04345",
"o c #BC4D4F",
"O c #4B9A27",
"+ c #D8B78F",
"@ c #FFD7A8",
"# c white",
/* pixels */
"                                                                ",
"                                                                ",
"           .............................................        ",
"           .............................................        ",
"           .............................................        ",
"           .............................................        ",
"        .......XXXXXXXXXXXXXXXoooooooooooooooooooooooooo....    ",
"        .......XXXXXXXXXXXXXXXoooooooooooooooooooooooooo....    ",
"        .......XXXXXXXXXXXXXXXoooooooooooooooooooooooooo....    ",
"        .......XXXXXXXXXXXXXXXoooooooooooooooooooooooooo....    ",
"    ....OOO....XXXXXXXXXXXXXXXXXXXoooooooXXXXXXXXXXXXooo....    ",
"    ....OOO....XXXXXXXXXXXXXXXXXXXoooooooXXXXXXXXXXXXooo....    ",
"    ....OOO....XXXXXXXXXXXXXXXXXXXoooooooXXXXXXXXXXXXooo....    ",
"    ....OOO....XXXX####...####XXXXoooo...oooooooooooo.......    ",
"    ....OOO....XXXX####...####XXXXoooo...oooooooooooo.......    ",
"    ....OOO....XXXX####...####XXXXoooo...oooooooooooo.......    ",
"    ....OOO....XXXX####...####XXXXoooo...oooooooooooo.......    ",
"    ...........XXXX####...####XXXXoooooooooooooooooooooo....    ",
"    ...........XXXX####...####XXXXoooooooooooooooooooooo....    ",
"    ...........XXXX####...####XXXXoooooooooooooooooooooo....    ",
"    ...........XXXX####...####XXXXoooooooooooooooooooooo....    ",
"        ...OOOO....####...####XXXXoooooooooooooooooooooo....    ",
"        ...OOOO....####...####XXXXoooooooooooooooooooooo....    ",
"        ...OOOO....####...####XXXXoooooooooooooooooooooo....    ",
"        ...OOOO....####...####XXXXoooooooooooooooooooooo....    ",
"        ...OOOO....XXXXXXXXXXXXXXXoooooooooooooooooooooo....    ",
"        ...OOOO....XXXXXXXXXXXXXXXoooooooooooooooooooooo....    ",
"        ...OOOO....XXXXXXXXXXXXXXXoooooooooooooooooooooo....    ",
"        ...........XXXXXXXXXXXXXXXXXXXooo...................    ",
"        ...........XXXXXXXXXXXXXXXXXXXooo...................    ",
"        ...........XXXXXXXXXXXXXXXXXXXooo...................    ",
"        ...........XXXXXXXXXXXXXXXXXXXooo...................    ",
"        .......XXXXXXXXooooooooooooooo...                       ",
"        .......XXXXXXXXooooooooooooooo...                       ",
"        .......XXXXXXXXooooooooooooooo...                       ",
"        .......XXXXXXXXooooooooooooooo...                       ",
"           ....XXXX++++@@@@@@@@@@@@@@@...                       ",
"           ....XXXX++++@@@@@@@@@@@@@@@...                       ",
"           ....XXXX++++@@@@@@@@@@@@@@@...                       ",
"           ....XXXX++++@@@@@@@@@@@@@@@...                       ",
"    ...........XXXX++++@@@@@@@@@@@@@@@...                       ",
"    ...........XXXX++++@@@@@@@@@@@@@@@...                       ",
"    ...........XXXX++++@@@@@@@@@@@@@@@...                       ",
"    ....oooooooXXXX++++@@@@@@@@@@@@@@@...                       ",
"    ....oooooooXXXX++++@@@@@@@@@@@@@@@...                       ",
"    ....oooooooXXXX++++@@@@@@@@@@@@@@@...                       ",
"    ....oooooooXXXX++++@@@@@@@@@@@@@@@...                       ",
"    .......XXXXXXXXXXXX...++++++++oooo...                       ",
"    .......XXXXXXXXXXXX...++++++++oooo...                       ",
"    .......XXXXXXXXXXXX...++++++++oooo...                       ",
"    .......XXXXXXXXXXXX...++++++++oooo...                       ",
"        .......XXXXooooooo....oooooooo...                       ",
"        .......XXXXooooooo....oooooooo...                       ",
"        .......XXXXooooooo....oooooooo...                       ",
"        .......XXXXooooooo....oooooooo...                       ",
"               ....XXXXooo............                          ",
"               ....XXXXooo............                          ",
"               ....XXXXooo............                          ",
"                   ...............                              ",
"                   ...............                              ",
"                   ...............                              ",
"                   ...............                              ",
"                                                                ",
"                                                                "
};
