/* XPM */
static char *_b1f555bfa5b4f1c97f085fc71b1bf35[] = {
/* columns rows colors chars-per-pixel */
"17 24 8 1 ",
"  c None",
". c #382121",
"X c #A04345",
"o c #BC4D4F",
"O c #4B9A27",
"+ c #D8B78F",
"@ c #FFD7A8",
"# c white",
/* pixels */
"                 ",
"                 ",
"                 ",
"                 ",
"                 ",
"   ............  ",
"  ..XXXXooooooo. ",
" .O.XXXXXooXXXo. ",
" .O.X#.#Xo.ooo.. ",
" ...X#.#Xoooooo. ",
"  .O.#.#Xoooooo. ",
"  .O.XXXXoooooo. ",
"  ...XXXXXo..... ",
"  ..XXoooo.      ",
"   .X+@@@@.      ",
"   .X+@@@@.      ",
" ..oX+.@@@.      ",
" .oXXoo.+o.      ",
" ...Xoo.Xo.      ",
"    .Xo...       ",
"    ....         ",
"                 ",
"                 ",
"                 "
};
