/* XPM */
static char *a1446154da284a18989ca19032904773Ld7VOQQRK9CRbpfN[] = {
/* columns rows colors chars-per-pixel */
"64 64 8 1 ",
"  c #FF00FF",
". c #382121",
"X c #A04345",
"o c #BC4D4F",
"O c #4B9A27",
"+ c #D8B78F",
"@ c #FFD7A8",
"# c white",
/* pixels */
"           .............................................        ",
"           .............................................        ",
"           .............................................        ",
"           .............................................        ",
"        .......XXXXXXXXXXXXXXXoooooooooooooooooooooooooo....    ",
"        .......XXXXXXXXXXXXXXXoooooooooooooooooooooooooo....    ",
"        .......XXXXXXXXXXXXXXXoooooooooooooooooooooooooo....    ",
"        .......XXXXXXXXXXXXXXXoooooooooooooooooooooooooo....    ",
"    ....OOO....XXXXXXXXXXXXXXXXXXXoooooooXXXXXXXXXXXXooo....    ",
"    ....OOO....XXXXXXXXXXXXXXXXXXXoooooooXXXXXXXXXXXXooo....    ",
"    ....OOO....XXXXXXXXXXXXXXXXXXXoooooooXXXXXXXXXXXXooo....    ",
"    ....OOO....XXXX####...####XXXXoooo...oooooooooooo.......    ",
"    ....OOO....XXXX####...####XXXXoooo...oooooooooooo.......    ",
"    ....OOO....XXXX####...####XXXXoooo...oooooooooooo.......    ",
"    ....OOO....XXXX####...####XXXXoooo...oooooooooooo.......    ",
"    ...........XXXX####...####XXXXoooooooooooooooooooooo....    ",
"    ...........XXXX####...####XXXXoooooooooooooooooooooo....    ",
"    ...........XXXX####...####XXXXoooooooooooooooooooooo....    ",
"    ...........XXXX####...####XXXXoooooooooooooooooooooo....    ",
"        ...OOOO....####...####XXXXoooooooooooooooooooooo....    ",
"        ...OOOO....####...####XXXXoooooooooooooooooooooo....    ",
"        ...OOOO....####...####XXXXoooooooooooooooooooooo....    ",
"        ...OOOO....####...####XXXXoooooooooooooooooooooo....    ",
"        ...OOOO....XXXXXXXXXXXXXXXoooooooooooooooooooooo....    ",
"        ...OOOO....XXXXXXXXXXXXXXXoooooooooooooooooooooo....    ",
"        ...OOOO....XXXXXXXXXXXXXXXoooooooooooooooooooooo....    ",
"        ...........XXXXXXXXXXXXXXXXXXXooo...................    ",
"        ...........XXXXXXXXXXXXXXXXXXXooo...................    ",
"        ...........XXXXXXXXXXXXXXXXXXXooo...................    ",
"        ...........XXXXXXXXXXXXXXXXXXXooo...................    ",
"        .......XXXXXXXXooooooooooooooo...                       ",
"        .......XXXXXXXXooooooooooooooo...                       ",
"        .......XXXXXXXXooooooooooooooo...                       ",
"        .......XXXXXXXXooooooooooooooo...                       ",
"           ....XXXX++++@@@@@@@@@@@@@@@...                       ",
"           ....XXXX++++@@@@@@@@@@@@@@@...                       ",
"           ....XXXX++++@@@@@@@@@@@@@@@...                       ",
"           ....XXXX++++@@@@@@@@@@@@@@@...                       ",
"    ...........XXXX++++@@@@@@@@@@@@@@@...                       ",
"    ...........XXXX++++@@@@@@@@@@@@@@@...                       ",
"    ...........XXXX++++@@@@@@@@@@@@@@@...                       ",
"    ....oooooooXXXX++++@@@@@@@@@@@@@@@.......                   ",
"    ....oooooooXXXX++++@@@@@@@@@@@@@@@.......                   ",
"    ....oooooooXXXX++++@@@@@@@@@@@@@@@.......                   ",
"    ....oooooooXXXX++++@@@@@@@@@@@@@@@.......                   ",
"    .......XXXXXXXXXXXXooo++++++++ooooooo....                   ",
"    .......XXXXXXXXXXXXooo++++++++ooooooo....                   ",
"    .......XXXXXXXXXXXXooo++++++++ooooooo....                   ",
"    .......XXXXXXXXXXXXooo++++++++ooooooo....                   ",
"        .......XXXXoooooooooooooooXXXXXXX....                   ",
"        .......XXXXoooooooooooooooXXXXXXX....                   ",
"        .......XXXXoooooooooooooooXXXXXXX....                   ",
"        .......XXXXoooooooooooooooXXXXXXX....                   ",
"           ....XXXXoooo..................                       ",
"           ....XXXXoooo..................                       ",
"           ....XXXXoooo..................                       ",
"           ....XXXX....                                         ",
"           ....XXXX....                                         ",
"           ....XXXX....                                         ",
"           ....XXXX....                                         ",
"           ........                                             ",
"           ........                                             ",
"           ........                                             ",
"           ........                                             "
};
