/* XPM */
static char *_ead992891104c77a4e5aaf4ef902d17RGhq5qGDlILrlcS8[] = {
/* columns rows colors chars-per-pixel */
"64 64 8 1 ",
"  c #FF00FF",
". c #382121",
"X c #A04345",
"o c #BC4D4F",
"O c #4B9A27",
"+ c #D8B78F",
"@ c #FFD7A8",
"# c white",
/* pixels */
"                                                                ",
"                                                                ",
"        .............................................           ",
"        .............................................           ",
"        .............................................           ",
"        .............................................           ",
"    ....ooooooooooooooooooooooooooXXXXXXXXXXXXXXX.......        ",
"    ....ooooooooooooooooooooooooooXXXXXXXXXXXXXXX.......        ",
"    ....ooooooooooooooooooooooooooXXXXXXXXXXXXXXX.......        ",
"    ....ooooooooooooooooooooooooooXXXXXXXXXXXXXXX.......        ",
"    ....oooXXXXXXXXXXXXoooooooXXXXXXXXXXXXXXXXXXX....OOO....    ",
"    ....oooXXXXXXXXXXXXoooooooXXXXXXXXXXXXXXXXXXX....OOO....    ",
"    ....oooXXXXXXXXXXXXoooooooXXXXXXXXXXXXXXXXXXX....OOO....    ",
"    .......oooooooooooo...ooooXXXX####...####XXXX....OOO....    ",
"    .......oooooooooooo...ooooXXXX####...####XXXX....OOO....    ",
"    .......oooooooooooo...ooooXXXX####...####XXXX....OOO....    ",
"    .......oooooooooooo...ooooXXXX####...####XXXX....OOO....    ",
"    ....ooooooooooooooooooooooXXXX####...####XXXX...........    ",
"    ....ooooooooooooooooooooooXXXX####...####XXXX...........    ",
"    ....ooooooooooooooooooooooXXXX####...####XXXX...........    ",
"    ....ooooooooooooooooooooooXXXX####...####XXXX...........    ",
"    ....ooooooooooooooooooooooXXXX####...####....OOOO...        ",
"    ....ooooooooooooooooooooooXXXX####...####....OOOO...        ",
"    ....ooooooooooooooooooooooXXXX####...####....OOOO...        ",
"    ....ooooooooooooooooooooooXXXX####...####....OOOO...        ",
"    ....ooooooooooooooooooooooXXXXXXXXXXXXXXX....OOOO...        ",
"    ....ooooooooooooooooooooooXXXXXXXXXXXXXXX....OOOO...        ",
"    ....ooooooooooooooooooooooXXXXXXXXXXXXXXX....OOOO...        ",
"    ...................oooXXXXXXXXXXXXXXXXXXX...........        ",
"    ...................oooXXXXXXXXXXXXXXXXXXX...........        ",
"    ...................oooXXXXXXXXXXXXXXXXXXX...........        ",
"    ...................oooXXXXXXXXXXXXXXXXXXX...........        ",
"                       ...oooooooooooooooXXXXXXXX.......        ",
"                       ...oooooooooooooooXXXXXXXX.......        ",
"                       ...oooooooooooooooXXXXXXXX.......        ",
"                       ...oooooooooooooooXXXXXXXX.......        ",
"                       ...@@@@@@@@@@@@@@@++++XXXX....           ",
"                       ...@@@@@@@@@@@@@@@++++XXXX....           ",
"                       ...@@@@@@@@@@@@@@@++++XXXX....           ",
"                       ...@@@@@@@@@@@@@@@++++XXXX....           ",
"                       ...@@@@@@@@@@@@@@@++++XXXX...........    ",
"                       ...@@@@@@@@@@@@@@@++++XXXX...........    ",
"                       ...@@@@@@@@@@@@@@@++++XXXX...........    ",
"                       ...@@@@@@@@@@@@@@@++++XXXXooooooo....    ",
"                       ...@@@@@@@@@@@@@@@++++XXXXooooooo....    ",
"                       ...@@@@@@@@@@@@@@@++++XXXXooooooo....    ",
"                       ...@@@@@@@@@@@@@@@++++XXXXooooooo....    ",
"                       ...oooo++++++++...XXXXXXXXXXXX.......    ",
"                       ...oooo++++++++...XXXXXXXXXXXX.......    ",
"                       ...oooo++++++++...XXXXXXXXXXXX.......    ",
"                       ...oooo++++++++...XXXXXXXXXXXX.......    ",
"                       ...oooooooo....oooooooXXXX.......        ",
"                       ...oooooooo....oooooooXXXX.......        ",
"                       ...oooooooo....oooooooXXXX.......        ",
"                       ...oooooooo....oooooooXXXX.......        ",
"                          ............oooXXXX....               ",
"                          ............oooXXXX....               ",
"                          ............oooXXXX....               ",
"                              ...............                   ",
"                              ...............                   ",
"                              ...............                   ",
"                              ...............                   ",
"                                                                ",
"                                                                "
};
