/* XPM */
static char *_e4b25850ee44eb4ede53a1ad569bdabNIuIcC86EaB8zUdl[] = {
/* columns rows colors chars-per-pixel */
"24 24 2 1 ",
"7 c #red",
"0 c #white",
/* pixels */
"777777777777777777777777",
"700000000000000000000007",
"700000000000000000000007",
"700000000000000000000007",
"700000000000000000000007",
"700000000000000000000007",
"700000000000000000000007",
"700000000000000000000007",
"700000000000000000000007",
"700000000000000000000007",
"700000000000000000000007",
"700000000000000000000007",
"700000000000000000000007",
"700000000000000000000007",
"700000000000000000000007",
"700000000000000000000007",
"700000000000000000000007",
"700000000000000000000007",
"700000000000000000000007",
"700000000000000000000007",
"700000000000000000000007",
"700000000000000000000007",
"700000000000000000000007",
"777777777777777777777777"
};
